<mxfile host="65bd71144e">
    <diagram id="5Z5tZcm0EI0rBmQ7cpq6" name="Посетитель">
        <mxGraphModel grid="1" page="1" gridSize="10" guides="1" tooltips="1" connect="1" arrows="1" fold="1" pageScale="1" pageWidth="827" pageHeight="1169" math="0" shadow="0">
            <root>
                <mxCell id="0"/>
                <mxCell id="1" parent="0"/>
                <mxCell id="zGxSoCr0wpbk-iCftkcr-1" value="" style="shape=umlActor;verticalLabelPosition=bottom;verticalAlign=top;html=1;outlineConnect=0;" parent="1" vertex="1">
                    <mxGeometry x="430" y="330" width="30" height="60" as="geometry"/>
                </mxCell>
                <mxCell id="zGxSoCr0wpbk-iCftkcr-2" value="Смотреть информацию о бренде" style="ellipse;whiteSpace=wrap;html=1;" parent="1" vertex="1">
                    <mxGeometry x="520" y="260" width="120" height="80" as="geometry"/>
                </mxCell>
                <mxCell id="zGxSoCr0wpbk-iCftkcr-4" value="Смотреть товары" style="ellipse;whiteSpace=wrap;html=1;" parent="1" vertex="1">
                    <mxGeometry x="520" y="160" width="120" height="80" as="geometry"/>
                </mxCell>
                <mxCell id="zGxSoCr0wpbk-iCftkcr-8" value="Авторизоваться" style="ellipse;whiteSpace=wrap;html=1;" parent="1" vertex="1">
                    <mxGeometry x="520" y="370" width="120" height="80" as="geometry"/>
                </mxCell>
                <mxCell id="zGxSoCr0wpbk-iCftkcr-9" value="Зарегистрироваться" style="ellipse;whiteSpace=wrap;html=1;" parent="1" vertex="1">
                    <mxGeometry x="520" y="470" width="120" height="80" as="geometry"/>
                </mxCell>
                <mxCell id="zGxSoCr0wpbk-iCftkcr-22" value="" style="endArrow=none;html=1;rounded=0;exitX=0.5;exitY=0.5;exitDx=0;exitDy=0;exitPerimeter=0;entryX=0;entryY=0.5;entryDx=0;entryDy=0;" parent="1" source="zGxSoCr0wpbk-iCftkcr-1" target="zGxSoCr0wpbk-iCftkcr-4" edge="1">
                    <mxGeometry width="50" height="50" relative="1" as="geometry">
                        <mxPoint x="450" y="400" as="sourcePoint"/>
                        <mxPoint x="500" y="350" as="targetPoint"/>
                        <Array as="points">
                            <mxPoint x="480" y="360"/>
                            <mxPoint x="480" y="200"/>
                        </Array>
                    </mxGeometry>
                </mxCell>
                <mxCell id="zGxSoCr0wpbk-iCftkcr-30" value="" style="endArrow=none;html=1;rounded=0;exitX=0.5;exitY=0.5;exitDx=0;exitDy=0;exitPerimeter=0;entryX=0;entryY=0.5;entryDx=0;entryDy=0;" parent="1" source="zGxSoCr0wpbk-iCftkcr-1" target="zGxSoCr0wpbk-iCftkcr-9" edge="1">
                    <mxGeometry width="50" height="50" relative="1" as="geometry">
                        <mxPoint x="450" y="350" as="sourcePoint"/>
                        <mxPoint x="500" y="300" as="targetPoint"/>
                        <Array as="points">
                            <mxPoint x="480" y="360"/>
                            <mxPoint x="480" y="510"/>
                        </Array>
                    </mxGeometry>
                </mxCell>
                <mxCell id="zGxSoCr0wpbk-iCftkcr-31" value="" style="endArrow=none;html=1;rounded=0;exitX=0.5;exitY=0.5;exitDx=0;exitDy=0;exitPerimeter=0;entryX=0;entryY=0.5;entryDx=0;entryDy=0;" parent="1" source="zGxSoCr0wpbk-iCftkcr-1" target="zGxSoCr0wpbk-iCftkcr-8" edge="1">
                    <mxGeometry width="50" height="50" relative="1" as="geometry">
                        <mxPoint x="450" y="350" as="sourcePoint"/>
                        <mxPoint x="500" y="300" as="targetPoint"/>
                        <Array as="points">
                            <mxPoint x="480" y="360"/>
                            <mxPoint x="480" y="410"/>
                        </Array>
                    </mxGeometry>
                </mxCell>
                <mxCell id="zGxSoCr0wpbk-iCftkcr-32" value="" style="endArrow=none;html=1;rounded=0;exitX=0.5;exitY=0.5;exitDx=0;exitDy=0;exitPerimeter=0;entryX=0;entryY=0.5;entryDx=0;entryDy=0;" parent="1" source="zGxSoCr0wpbk-iCftkcr-1" target="zGxSoCr0wpbk-iCftkcr-2" edge="1">
                    <mxGeometry width="50" height="50" relative="1" as="geometry">
                        <mxPoint x="450" y="400" as="sourcePoint"/>
                        <mxPoint x="500" y="350" as="targetPoint"/>
                        <Array as="points">
                            <mxPoint x="480" y="360"/>
                            <mxPoint x="480" y="300"/>
                        </Array>
                    </mxGeometry>
                </mxCell>
                <mxCell id="zGxSoCr0wpbk-iCftkcr-82" value="Посетитель" style="text;html=1;align=center;verticalAlign=middle;resizable=0;points=[];autosize=1;strokeColor=none;fillColor=none;fontSize=11.3;" parent="1" vertex="1">
                    <mxGeometry x="355" y="345" width="80" height="30" as="geometry"/>
                </mxCell>
            </root>
        </mxGraphModel>
    </diagram>
    <diagram id="9Pj8mD5R491QzkZL8u2q" name="Клиент">
        <mxGraphModel dx="1045" dy="908" grid="1" gridSize="10" guides="1" tooltips="1" connect="1" arrows="1" fold="1" page="1" pageScale="1" pageWidth="827" pageHeight="1169" math="0" shadow="0">
            <root>
                <mxCell id="0"/>
                <mxCell id="1" parent="0"/>
                <mxCell id="ioHgR-dDL4A_0PSmL_Xo-1" value="" style="shape=umlActor;verticalLabelPosition=bottom;verticalAlign=top;html=1;outlineConnect=0;" vertex="1" parent="1">
                    <mxGeometry x="430" y="500" width="30" height="60" as="geometry"/>
                </mxCell>
                <mxCell id="ioHgR-dDL4A_0PSmL_Xo-10" value="Удалить товар из корзины" style="ellipse;whiteSpace=wrap;html=1;" vertex="1" parent="1">
                    <mxGeometry x="520" y="630" width="120" height="80" as="geometry"/>
                </mxCell>
                <mxCell id="ioHgR-dDL4A_0PSmL_Xo-11" value="Добавить товар в корзину" style="ellipse;whiteSpace=wrap;html=1;" vertex="1" parent="1">
                    <mxGeometry x="520" y="540" width="120" height="80" as="geometry"/>
                </mxCell>
                <mxCell id="ioHgR-dDL4A_0PSmL_Xo-14" value="" style="shape=umlActor;verticalLabelPosition=bottom;verticalAlign=top;html=1;outlineConnect=0;" vertex="1" parent="1">
                    <mxGeometry x="430" y="660" width="30" height="60" as="geometry"/>
                </mxCell>
                <mxCell id="ioHgR-dDL4A_0PSmL_Xo-16" value="" style="endArrow=none;html=1;rounded=0;exitX=0.5;exitY=0.5;exitDx=0;exitDy=0;exitPerimeter=0;entryX=0;entryY=0.5;entryDx=0;entryDy=0;" edge="1" parent="1" source="ioHgR-dDL4A_0PSmL_Xo-14" target="ioHgR-dDL4A_0PSmL_Xo-11">
                    <mxGeometry width="50" height="50" relative="1" as="geometry">
                        <mxPoint x="450" y="350" as="sourcePoint"/>
                        <mxPoint x="500" y="300" as="targetPoint"/>
                        <Array as="points">
                            <mxPoint x="480" y="690"/>
                            <mxPoint x="480" y="580"/>
                        </Array>
                    </mxGeometry>
                </mxCell>
                <mxCell id="ioHgR-dDL4A_0PSmL_Xo-17" value="" style="endArrow=none;html=1;rounded=0;entryX=0;entryY=0.5;entryDx=0;entryDy=0;" edge="1" parent="1" target="ioHgR-dDL4A_0PSmL_Xo-10">
                    <mxGeometry width="50" height="50" relative="1" as="geometry">
                        <mxPoint x="480" y="670" as="sourcePoint"/>
                        <mxPoint x="500" y="300" as="targetPoint"/>
                        <Array as="points">
                            <mxPoint x="480" y="670"/>
                        </Array>
                    </mxGeometry>
                </mxCell>
                <mxCell id="ioHgR-dDL4A_0PSmL_Xo-23" value="" style="endArrow=block;endSize=16;endFill=0;html=1;rounded=0;entryX=0.5;entryY=0;entryDx=0;entryDy=0;entryPerimeter=0;" edge="1" parent="1" source="ioHgR-dDL4A_0PSmL_Xo-1" target="ioHgR-dDL4A_0PSmL_Xo-14">
                    <mxGeometry x="0.1398" y="46" width="160" relative="1" as="geometry">
                        <mxPoint x="593.5735931288073" y="438.2842712474617" as="sourcePoint"/>
                        <mxPoint x="436" y="595" as="targetPoint"/>
                        <mxPoint as="offset"/>
                    </mxGeometry>
                </mxCell>
                <mxCell id="ioHgR-dDL4A_0PSmL_Xo-42" value="Посетитель" style="text;html=1;align=center;verticalAlign=middle;resizable=0;points=[];autosize=1;strokeColor=none;fillColor=none;fontSize=11.3;" vertex="1" parent="1">
                    <mxGeometry x="355" y="515" width="80" height="30" as="geometry"/>
                </mxCell>
                <mxCell id="ioHgR-dDL4A_0PSmL_Xo-43" value="Совершить заказ" style="ellipse;whiteSpace=wrap;html=1;" vertex="1" parent="1">
                    <mxGeometry x="520" y="720" width="120" height="80" as="geometry"/>
                </mxCell>
                <mxCell id="ioHgR-dDL4A_0PSmL_Xo-44" value="" style="endArrow=none;html=1;rounded=0;exitX=0.5;exitY=0.5;exitDx=0;exitDy=0;exitPerimeter=0;entryX=0;entryY=0.5;entryDx=0;entryDy=0;" edge="1" parent="1" source="ioHgR-dDL4A_0PSmL_Xo-14" target="ioHgR-dDL4A_0PSmL_Xo-43">
                    <mxGeometry width="50" height="50" relative="1" as="geometry">
                        <mxPoint x="455" y="670" as="sourcePoint"/>
                        <mxPoint x="610" y="710" as="targetPoint"/>
                        <Array as="points">
                            <mxPoint x="480" y="690"/>
                            <mxPoint x="480" y="760"/>
                        </Array>
                    </mxGeometry>
                </mxCell>
                <mxCell id="nosuSCPoKGaU3dnlhoKR-6" value="Клиент" style="text;html=1;align=center;verticalAlign=middle;resizable=0;points=[];autosize=1;strokeColor=none;fillColor=none;fontSize=11.3;" vertex="1" parent="1">
                    <mxGeometry x="360" y="675" width="60" height="30" as="geometry"/>
                </mxCell>
                <mxCell id="nosuSCPoKGaU3dnlhoKR-8" style="edgeStyle=none;html=1;exitX=0;exitY=0.5;exitDx=0;exitDy=0;rounded=0;endArrow=none;endFill=0;" edge="1" parent="1" source="nosuSCPoKGaU3dnlhoKR-7">
                    <mxGeometry relative="1" as="geometry">
                        <mxPoint x="480" y="760" as="targetPoint"/>
                        <Array as="points">
                            <mxPoint x="480" y="860"/>
                        </Array>
                    </mxGeometry>
                </mxCell>
                <mxCell id="nosuSCPoKGaU3dnlhoKR-7" value="Смотреть историю заказов" style="ellipse;whiteSpace=wrap;html=1;" vertex="1" parent="1">
                    <mxGeometry x="520" y="820" width="120" height="80" as="geometry"/>
                </mxCell>
            </root>
        </mxGraphModel>
    </diagram>
    <diagram id="UMXdvxg_A-DfICJcVSIt" name="Администратор">
        <mxGraphModel dx="1045" dy="908" grid="1" gridSize="10" guides="1" tooltips="1" connect="1" arrows="1" fold="1" page="1" pageScale="1" pageWidth="827" pageHeight="1169" math="0" shadow="0">
            <root>
                <mxCell id="0"/>
                <mxCell id="1" parent="0"/>
                <mxCell id="CSlIoPGJRToRDyKi39t9-1" value="" style="shape=umlActor;verticalLabelPosition=bottom;verticalAlign=top;html=1;outlineConnect=0;" vertex="1" parent="1">
                    <mxGeometry x="430" y="500" width="30" height="60" as="geometry"/>
                </mxCell>
                <mxCell id="CSlIoPGJRToRDyKi39t9-2" value="Изменить заказ" style="ellipse;whiteSpace=wrap;html=1;" vertex="1" parent="1">
                    <mxGeometry x="520" y="470" width="120" height="80" as="geometry"/>
                </mxCell>
                <mxCell id="CSlIoPGJRToRDyKi39t9-3" value="Смотреть заказы" style="ellipse;whiteSpace=wrap;html=1;" vertex="1" parent="1">
                    <mxGeometry x="520" y="380" width="120" height="80" as="geometry"/>
                </mxCell>
                <mxCell id="CSlIoPGJRToRDyKi39t9-4" value="" style="shape=umlActor;verticalLabelPosition=bottom;verticalAlign=top;html=1;outlineConnect=0;" vertex="1" parent="1">
                    <mxGeometry x="430" y="660" width="30" height="60" as="geometry"/>
                </mxCell>
                <mxCell id="CSlIoPGJRToRDyKi39t9-5" value="" style="endArrow=none;html=1;rounded=0;exitX=0.5;exitY=0.5;exitDx=0;exitDy=0;exitPerimeter=0;" edge="1" parent="1" source="CSlIoPGJRToRDyKi39t9-4">
                    <mxGeometry width="50" height="50" relative="1" as="geometry">
                        <mxPoint x="450" y="350" as="sourcePoint"/>
                        <mxPoint x="520" y="416" as="targetPoint"/>
                        <Array as="points">
                            <mxPoint x="480" y="690"/>
                            <mxPoint x="480" y="416"/>
                        </Array>
                    </mxGeometry>
                </mxCell>
                <mxCell id="CSlIoPGJRToRDyKi39t9-6" value="" style="endArrow=none;html=1;rounded=0;entryX=0;entryY=0.5;entryDx=0;entryDy=0;" edge="1" parent="1" target="CSlIoPGJRToRDyKi39t9-2">
                    <mxGeometry width="50" height="50" relative="1" as="geometry">
                        <mxPoint x="480" y="506" as="sourcePoint"/>
                        <mxPoint x="500" y="300" as="targetPoint"/>
                        <Array as="points">
                            <mxPoint x="480" y="510"/>
                        </Array>
                    </mxGeometry>
                </mxCell>
                <mxCell id="CSlIoPGJRToRDyKi39t9-7" value="" style="endArrow=block;endSize=16;endFill=0;html=1;rounded=0;entryX=0.5;entryY=0;entryDx=0;entryDy=0;entryPerimeter=0;" edge="1" parent="1" source="CSlIoPGJRToRDyKi39t9-1" target="CSlIoPGJRToRDyKi39t9-4">
                    <mxGeometry x="0.1398" y="46" width="160" relative="1" as="geometry">
                        <mxPoint x="593.5735931288073" y="438.2842712474617" as="sourcePoint"/>
                        <mxPoint x="436" y="595" as="targetPoint"/>
                        <mxPoint as="offset"/>
                    </mxGeometry>
                </mxCell>
                <mxCell id="CSlIoPGJRToRDyKi39t9-8" value="Клиент" style="text;html=1;align=center;verticalAlign=middle;resizable=0;points=[];autosize=1;strokeColor=none;fillColor=none;fontSize=11.3;" vertex="1" parent="1">
                    <mxGeometry x="365" y="515" width="60" height="30" as="geometry"/>
                </mxCell>
                <mxCell id="CSlIoPGJRToRDyKi39t9-9" value="Изменить пользователя" style="ellipse;whiteSpace=wrap;html=1;" vertex="1" parent="1">
                    <mxGeometry x="520" y="560" width="120" height="80" as="geometry"/>
                </mxCell>
                <mxCell id="CSlIoPGJRToRDyKi39t9-10" value="" style="endArrow=none;html=1;rounded=0;exitX=0.5;exitY=0.5;exitDx=0;exitDy=0;exitPerimeter=0;entryX=0;entryY=0.5;entryDx=0;entryDy=0;" edge="1" parent="1" source="CSlIoPGJRToRDyKi39t9-4" target="CSlIoPGJRToRDyKi39t9-9">
                    <mxGeometry width="50" height="50" relative="1" as="geometry">
                        <mxPoint x="455" y="670" as="sourcePoint"/>
                        <mxPoint x="610" y="710" as="targetPoint"/>
                        <Array as="points">
                            <mxPoint x="480" y="690"/>
                            <mxPoint x="480" y="600"/>
                        </Array>
                    </mxGeometry>
                </mxCell>
                <mxCell id="CSlIoPGJRToRDyKi39t9-11" value="Администратор" style="text;html=1;align=center;verticalAlign=middle;resizable=0;points=[];autosize=1;strokeColor=none;fillColor=none;fontSize=11.3;" vertex="1" parent="1">
                    <mxGeometry x="340" y="675" width="100" height="30" as="geometry"/>
                </mxCell>
                <mxCell id="CSlIoPGJRToRDyKi39t9-12" style="edgeStyle=none;html=1;exitX=0;exitY=0.5;exitDx=0;exitDy=0;rounded=0;endArrow=none;endFill=0;" edge="1" parent="1" source="CSlIoPGJRToRDyKi39t9-13">
                    <mxGeometry relative="1" as="geometry">
                        <mxPoint x="480" y="690" as="targetPoint"/>
                        <Array as="points"/>
                    </mxGeometry>
                </mxCell>
                <mxCell id="CSlIoPGJRToRDyKi39t9-13" value="Изменить товар" style="ellipse;whiteSpace=wrap;html=1;" vertex="1" parent="1">
                    <mxGeometry x="520" y="650" width="120" height="80" as="geometry"/>
                </mxCell>
                <mxCell id="CSlIoPGJRToRDyKi39t9-20" style="edgeStyle=none;rounded=0;html=1;exitX=0;exitY=0.5;exitDx=0;exitDy=0;endArrow=none;endFill=0;" edge="1" parent="1" source="CSlIoPGJRToRDyKi39t9-14">
                    <mxGeometry relative="1" as="geometry">
                        <mxPoint x="480.0000000000001" y="785.4285714285716" as="targetPoint"/>
                    </mxGeometry>
                </mxCell>
                <mxCell id="CSlIoPGJRToRDyKi39t9-14" value="Изменить бренд" style="ellipse;whiteSpace=wrap;html=1;" vertex="1" parent="1">
                    <mxGeometry x="520" y="745.5" width="120" height="80" as="geometry"/>
                </mxCell>
                <mxCell id="CSlIoPGJRToRDyKi39t9-19" style="edgeStyle=none;rounded=0;html=1;exitX=0;exitY=0.5;exitDx=0;exitDy=0;endArrow=none;endFill=0;" edge="1" parent="1" source="CSlIoPGJRToRDyKi39t9-15">
                    <mxGeometry relative="1" as="geometry">
                        <mxPoint x="480.0000000000001" y="879.7142857142858" as="targetPoint"/>
                    </mxGeometry>
                </mxCell>
                <mxCell id="CSlIoPGJRToRDyKi39t9-15" value="Создать бренд" style="ellipse;whiteSpace=wrap;html=1;" vertex="1" parent="1">
                    <mxGeometry x="520" y="840" width="120" height="80" as="geometry"/>
                </mxCell>
                <mxCell id="CSlIoPGJRToRDyKi39t9-18" style="edgeStyle=none;rounded=0;html=1;exitX=0;exitY=0.5;exitDx=0;exitDy=0;endArrow=none;endFill=0;" edge="1" parent="1" source="CSlIoPGJRToRDyKi39t9-16">
                    <mxGeometry relative="1" as="geometry">
                        <mxPoint x="480.0000000000001" y="690" as="targetPoint"/>
                        <Array as="points">
                            <mxPoint x="480" y="970"/>
                        </Array>
                    </mxGeometry>
                </mxCell>
                <mxCell id="CSlIoPGJRToRDyKi39t9-16" value="Создать товар" style="ellipse;whiteSpace=wrap;html=1;" vertex="1" parent="1">
                    <mxGeometry x="520" y="930" width="120" height="80" as="geometry"/>
                </mxCell>
            </root>
        </mxGraphModel>
    </diagram>
</mxfile>
